# Blender v2.91.0 OBJ File: ''
# www.blender.org
mtllib chest.mtl
o chest
v 1.039926 -0.065102 -0.764082
v -1.040353 -0.060103 -0.766120
v -1.148262 1.028994 -0.941620
v 1.153411 1.023463 -0.939365
v 1.153411 1.023463 -0.939365
v -1.148262 1.028994 -0.941620
v -1.270608 1.046172 -1.034041
v 1.276020 1.040053 -1.031546
v 1.276020 1.040053 -1.031546
v -1.270608 1.046172 -1.034041
v -1.270010 1.286673 -1.054644
v 1.276618 1.280553 -1.052149
v 1.276618 1.280553 -1.052149
v -1.270010 1.286673 -1.054644
v -1.087917 1.281997 -0.897870
v 1.094198 1.276753 -0.895732
v -1.088118 1.201365 -0.890962
v 1.093997 1.196121 -0.888824
v 1.093997 1.196121 -0.888824
v -1.088118 1.201365 -0.890962
v -0.964322 1.415764 -0.709818
v 0.666047 1.513202 -0.716903
v 0.666047 1.513202 -0.716903
v -0.964322 1.415764 -0.709818
v -0.320530 1.710273 -0.367513
v -1.040353 -0.060103 -0.766120
v -1.041538 0.071134 0.765792
v -1.149573 1.174198 0.753326
v -1.148262 1.028994 -0.941620
v -1.148262 1.028994 -0.941620
v -1.149573 1.174198 0.753326
v -1.272060 1.206830 0.841290
v -1.270608 1.046172 -1.034041
v -1.270608 1.046172 -1.034041
v -1.272060 1.206830 0.841290
v -1.271461 1.447330 0.820687
v -1.270010 1.286673 -1.054644
v -1.270010 1.286673 -1.054644
v -1.271461 1.447330 0.820687
v -1.089129 1.416081 0.667272
v -1.087917 1.281997 -0.897870
v -1.089329 1.335449 0.674180
v -1.088118 1.201365 -0.890962
v -1.089329 1.335449 0.674180
v -0.965227 1.515930 0.459398
v -0.320530 1.710273 -0.367513
v -1.041538 0.071134 0.765792
v 1.038740 0.066136 0.767831
v 1.152099 1.168667 0.755581
v -1.149573 1.174198 0.753326
v -1.149573 1.174198 0.753326
v 1.152099 1.168667 0.755581
v 1.274568 1.200710 0.843785
v -1.272060 1.206830 0.841290
v -1.272060 1.206830 0.841290
v 1.274568 1.200710 0.843785
v 1.275167 1.441210 0.823182
v -1.271461 1.447330 0.820687
v -1.271461 1.447330 0.820687
v 1.275167 1.441210 0.823182
v 1.092987 1.410837 0.669410
v -1.089129 1.416081 0.667272
v 1.092786 1.330205 0.676318
v -1.089329 1.335449 0.674180
v 1.092786 1.330205 0.676318
v 0.665142 1.613367 0.452313
v 1.038740 0.066136 0.767831
v 1.039926 -0.065102 -0.764082
v 1.153411 1.023463 -0.939365
v 1.152099 1.168667 0.755581
v 1.152099 1.168667 0.755581
v 1.153411 1.023463 -0.939365
v 1.276020 1.040053 -1.031546
v 1.274568 1.200710 0.843785
v 1.274568 1.200710 0.843785
v 1.276020 1.040053 -1.031546
v 1.276618 1.280553 -1.052149
v 1.275167 1.441210 0.823182
v 1.275167 1.441210 0.823182
v 1.276618 1.280553 -1.052149
v 1.094198 1.276753 -0.895732
v 1.092987 1.410837 0.669410
v 1.093997 1.196121 -0.888824
v 1.092786 1.330205 0.676318
v 0.005247 1.028883 1.201661
v 0.006116 1.402609 1.169644
v -0.050651 1.310367 1.092022
v -0.051855 1.095448 1.111385
v 0.062133 1.101413 1.110010
v 0.063336 1.316493 1.092537
v 0.063702 1.311579 0.706233
v 0.006441 1.347454 0.702752
v -0.050288 1.308401 0.716388
v -0.051653 1.028462 0.741321
v 0.005622 0.993616 0.733064
v 0.062335 1.034426 0.739947
v 0.300613 1.209776 0.846939
v 0.197701 0.064703 0.872920
v 0.218475 0.030993 0.764087
v 0.332037 1.162808 0.712413
v -0.192205 0.065640 0.872538
v -0.289561 1.211195 0.846361
v -0.320947 1.164377 0.711773
v -0.212927 0.032030 0.763664
v 0.197701 0.064703 0.872920
v 0.300613 1.209776 0.846939
v -0.289561 1.211195 0.846361
v -0.192205 0.065640 0.872538
v 1.256268 0.543502 0.245482
v 1.295119 0.641734 0.102720
v 1.215167 0.945918 0.124310
v 1.135980 1.016368 0.191584
v 1.091942 0.900985 0.120731
v 1.168700 0.608511 0.094690
v 1.256825 0.489313 -0.387271
v 1.168521 0.576084 -0.269220
v 1.294382 0.611399 -0.261370
v 1.091847 0.859127 -0.353266
v 1.136378 0.964725 -0.411104
v 1.217708 0.894443 -0.345416
v -1.253022 0.494406 -0.400469
v -1.291327 0.615679 -0.276511
v -1.209883 0.911360 -0.349489
v -1.130378 0.968950 -0.427732
v -1.086880 0.867082 -0.338268
v -1.165070 0.583681 -0.262894
v -1.253579 0.548631 0.232281
v -1.164897 0.613622 0.101229
v -1.290585 0.647709 0.087434
v -1.086791 0.906454 0.135942
v -1.130775 1.020569 0.174958
v -1.212480 0.940541 0.122146
v -0.774743 2.338850 -0.041438
v -0.775297 1.775258 -0.857872
v 0.712935 1.752080 -0.842883
v 0.713512 2.339149 0.007557
v -1.352430 2.697819 -0.666418
v 1.309089 2.696855 -0.667555
v 1.308909 2.513693 -0.932889
v -1.352564 2.514655 -0.931751
v -1.312270 1.266306 -1.035271
v 1.253164 1.266207 -1.036950
v 0.974844 1.399076 -0.854968
v -0.993497 1.412919 -0.863188
v -1.322068 1.492782 -1.119403
v 1.266568 1.492475 -1.120952
v 1.253164 1.266207 -1.036950
v -1.312270 1.266306 -1.035271
v -1.330317 1.801655 -1.022622
v 1.278085 1.801170 -1.024058
v -1.346812 2.225739 -1.103535
v 1.300735 2.224902 -1.104751
v -1.311477 2.348113 0.531852
v -0.992685 2.238976 0.333457
v -1.321324 2.507077 0.349919
v -1.322068 1.492782 -1.119403
v -1.312270 1.266306 -1.035271
v -1.311477 2.348113 0.531852
v -1.329784 2.530000 0.032471
v -1.330317 1.801655 -1.022622
v -1.346423 2.756014 -0.335370
v -1.346812 2.225739 -1.103535
v -1.352430 2.697819 -0.666418
v -1.352564 2.514655 -0.931751
v 1.254228 2.348011 0.530176
v 0.975656 2.225132 0.341677
v 1.267566 2.506766 0.348374
v -1.321324 2.507077 0.349919
v -1.311477 2.348113 0.531852
v 1.254228 2.348011 0.530176
v 1.278801 2.529513 0.031036
v -1.329784 2.530000 0.032471
v -1.321324 2.507077 0.349919
v 1.267566 2.506766 0.348374
v 1.301256 2.755175 -0.336585
v -1.346423 2.756014 -0.335370
v 1.266568 1.492475 -1.120952
v 1.267566 2.506766 0.348374
v 1.254228 2.348011 0.530176
v 1.253164 1.266207 -1.036950
v 1.278085 1.801170 -1.024058
v 1.278801 2.529513 0.031036
v 1.300735 2.224902 -1.104751
v 1.301256 2.755175 -0.336585
v 1.308909 2.513693 -0.932889
v 1.309089 2.696855 -0.667555
v 0.713512 2.339149 0.007557
v 0.712935 1.752080 -0.842883
v 0.974844 1.399076 -0.854968
v 0.974844 1.399076 -0.854968
v 0.975656 2.225132 0.341677
v 0.713512 2.339149 0.007557
v -0.774743 2.338850 -0.041438
v 0.713512 2.339149 0.007557
v 0.975656 2.225132 0.341677
v 0.975656 2.225132 0.341677
v -0.992685 2.238976 0.333457
v -0.774743 2.338850 -0.041438
v -0.775297 1.775258 -0.857872
v -0.774743 2.338850 -0.041438
v -0.992685 2.238976 0.333457
v -0.992685 2.238976 0.333457
v -0.993497 1.412919 -0.863188
v -0.775297 1.775258 -0.857872
v 0.712935 1.752080 -0.842883
v -0.775297 1.775258 -0.857872
v -0.993497 1.412919 -0.863188
v -0.993497 1.412919 -0.863188
v 0.974844 1.399076 -0.854968
v 0.712935 1.752080 -0.842883
v 0.298458 2.378543 0.506371
v 0.324338 2.550284 0.403854
v 0.291503 2.582938 0.549438
v 0.216788 1.933242 0.915154
v 0.241686 1.849604 0.837739
v -0.278612 1.850854 0.837229
v 0.241686 1.849604 0.837739
v 0.216788 1.933242 0.915154
v -0.253464 1.934372 0.914694
v -0.253464 1.934372 0.914694
v -0.324339 2.584418 0.548834
v -0.357045 2.551921 0.403187
v -0.328273 2.349861 0.524080
v -0.278612 1.850854 0.837229
v 0.324338 2.550284 0.403854
v -0.357045 2.551921 0.403187
v -0.324339 2.584418 0.548834
v 0.291503 2.582938 0.549438
v -0.328273 2.349861 0.524080
v 0.298458 2.378543 0.506371
v 0.241686 1.849604 0.837739
v -0.278612 1.850854 0.837229
v -0.253464 1.934372 0.914694
v 0.216788 1.933242 0.915154
v 0.298428 2.340022 0.442907
v 0.324256 2.479124 0.313458
v 0.324338 2.550284 0.403854
v 0.324338 2.550284 0.403854
v 0.298458 2.378543 0.506371
v 0.298428 2.340022 0.442907
v -0.357128 2.480762 0.312791
v -0.328303 2.311340 0.460616
v -0.328273 2.349861 0.524080
v -0.328273 2.349861 0.524080
v -0.357045 2.551921 0.403187
v -0.357128 2.480762 0.312791
v 0.324256 2.479124 0.313458
v -0.357128 2.480762 0.312791
v -0.357045 2.551921 0.403187
v -0.357045 2.551921 0.403187
v 0.324338 2.550284 0.403854
v 0.324256 2.479124 0.313458
vt 0.943082 0.010438
vt 0.510873 0.010438
vt 0.485811 0.220985
vt 0.966081 0.220985
vt 0.966081 0.220985
vt 0.485811 0.220985
vt 0.462427 0.239318
vt 0.991528 0.239318
vt 0.991528 0.239318
vt 0.462427 0.239318
vt 0.462427 0.294226
vt 0.991528 0.294226
vt 0.328434 0.304998
vt 0.328434 0.736288
vt 0.301625 0.712205
vt 0.301625 0.336388
vt 0.301625 0.712205
vt 0.301625 0.336388
vt 0.301625 0.336388
vt 0.301625 0.712205
vt 0.267406 0.690943
vt 0.267406 0.410194
vt 0.267406 0.410194
vt 0.267406 0.690943
vt 0.204423 0.580130
vt 0.038231 0.012292
vt 0.356302 0.012292
vt 0.373228 0.227624
vt 0.021305 0.227625
vt 0.021305 0.227625
vt 0.373228 0.227624
vt 0.391954 0.245879
vt 0.004482 0.245879
vt 0.004482 0.245879
vt 0.391954 0.245879
vt 0.391954 0.294600
vt 0.004482 0.294600
vt 0.328434 0.736288
vt 0.011578 0.736288
vt 0.031080 0.712205
vt 0.301625 0.712205
vt 0.031080 0.712205
vt 0.301625 0.712205
vt 0.031080 0.712205
vt 0.065299 0.690943
vt 0.204423 0.580130
vt 0.510873 0.010438
vt 0.943082 0.010438
vt 0.966081 0.220985
vt 0.485811 0.220985
vt 0.485811 0.220985
vt 0.966081 0.220985
vt 0.991528 0.239318
vt 0.462427 0.239318
vt 0.462427 0.239318
vt 0.991528 0.239318
vt 0.991528 0.294226
vt 0.462427 0.294226
vt 0.011578 0.736288
vt 0.011578 0.304998
vt 0.031080 0.336388
vt 0.031080 0.712205
vt 0.031080 0.336388
vt 0.031080 0.712205
vt 0.031080 0.336388
vt 0.065299 0.410194
vt 0.356302 0.012292
vt 0.038231 0.012292
vt 0.021305 0.227625
vt 0.373228 0.227624
vt 0.373228 0.227624
vt 0.021305 0.227625
vt 0.004482 0.245879
vt 0.391954 0.245879
vt 0.391954 0.245879
vt 0.004482 0.245879
vt 0.004482 0.294600
vt 0.391954 0.294600
vt 0.011578 0.304998
vt 0.328434 0.304998
vt 0.301625 0.336388
vt 0.031080 0.336388
vt 0.301625 0.336388
vt 0.031080 0.336388
vt 0.502267 0.895707
vt 0.502267 0.995324
vt 0.482344 0.975401
vt 0.482344 0.915631
vt 0.482344 0.915631
vt 0.482344 0.975401
vt 0.422574 0.975401
vt 0.402650 0.995324
vt 0.422574 0.975401
vt 0.422574 0.915631
vt 0.402650 0.895707
vt 0.422574 0.915631
vt 0.973499 0.978221
vt 0.954435 0.763769
vt 0.972095 0.763992
vt 0.993188 0.977964
vt 0.880203 0.763769
vt 0.861139 0.978221
vt 0.839031 0.977964
vt 0.860124 0.763992
vt 0.954435 0.763769
vt 0.973499 0.978221
vt 0.861139 0.978221
vt 0.880203 0.763769
vt 0.490035 0.004431
vt 0.466127 0.028339
vt 0.466127 0.100063
vt 0.490035 0.123971
vt 0.466127 0.100063
vt 0.466127 0.028339
vt 0.370495 0.004431
vt 0.394403 0.028339
vt 0.394403 0.028339
vt 0.394403 0.100063
vt 0.370495 0.123971
vt 0.394403 0.100063
vt 0.370495 0.004431
vt 0.394403 0.028339
vt 0.394403 0.100063
vt 0.370495 0.123971
vt 0.394403 0.100063
vt 0.394403 0.028339
vt 0.490035 0.004431
vt 0.466127 0.028339
vt 0.466127 0.028339
vt 0.466127 0.100063
vt 0.490035 0.123971
vt 0.466127 0.100063
vt 0.763276 0.810121
vt 0.763169 0.934839
vt 0.576090 0.934773
vt 0.576201 0.804861
vt 0.660408 0.544568
vt 0.343359 0.545819
vt 0.343359 0.498621
vt 0.660408 0.497271
vt 0.831003 0.990340
vt 0.508453 0.990119
vt 0.543478 0.961832
vt 0.790935 0.961965
vt 0.660408 0.342844
vt 0.343359 0.343820
vt 0.343359 0.302407
vt 0.660408 0.301420
vt 0.660408 0.390434
vt 0.343359 0.391371
vt 0.660408 0.453643
vt 0.343359 0.454585
vt 0.831243 0.750947
vt 0.791093 0.779166
vt 0.474638 0.806996
vt 0.024488 0.807362
vt 0.009459 0.748280
vt 0.489571 0.747890
vt 0.412094 0.857316
vt 0.088850 0.857580
vt 0.368223 0.957022
vt 0.132884 0.957214
vt 0.291227 0.988847
vt 0.209938 0.988913
vt 0.508659 0.750726
vt 0.543635 0.779033
vt 0.343359 0.702402
vt 0.660408 0.701183
vt 0.660408 0.745757
vt 0.343359 0.740181
vt 0.343359 0.657333
vt 0.660408 0.652098
vt 0.660408 0.701183
vt 0.343359 0.702402
vt 0.343359 0.582320
vt 0.660408 0.582661
vt 0.024488 0.807362
vt 0.474638 0.806996
vt 0.489571 0.747890
vt 0.009459 0.748280
vt 0.088850 0.857580
vt 0.412094 0.857316
vt 0.132884 0.957214
vt 0.368223 0.957022
vt 0.209938 0.988913
vt 0.291227 0.988847
vt 0.576201 0.804861
vt 0.576090 0.934773
vt 0.543478 0.961832
vt 0.543478 0.961832
vt 0.543635 0.779033
vt 0.576201 0.804861
vt 0.763276 0.810121
vt 0.576201 0.804861
vt 0.543635 0.779033
vt 0.543635 0.779033
vt 0.791093 0.779166
vt 0.763276 0.810121
vt 0.763169 0.934839
vt 0.763276 0.810121
vt 0.791093 0.779166
vt 0.791093 0.779166
vt 0.790935 0.961965
vt 0.763169 0.934839
vt 0.576090 0.934773
vt 0.763169 0.934839
vt 0.790935 0.961965
vt 0.790935 0.961965
vt 0.543478 0.961832
vt 0.576090 0.934773
vt 0.718626 0.555798
vt 0.709035 0.637698
vt 0.761374 0.626055
vt 0.786693 0.365236
vt 0.748835 0.360288
vt 0.780642 0.334464
vt 0.957672 0.334767
vt 0.950252 0.364275
vt 0.786693 0.365236
vt 0.786693 0.365236
vt 0.761374 0.626055
vt 0.709035 0.637698
vt 0.718626 0.555798
vt 0.748835 0.360288
vt 0.987157 0.680875
vt 0.749975 0.680875
vt 0.761374 0.626055
vt 0.975571 0.626055
vt 0.765575 0.574809
vt 0.970530 0.574809
vt 0.950252 0.364275
vt 0.786693 0.364989
vt 0.786693 0.365236
vt 0.950252 0.364275
vt 0.693465 0.559520
vt 0.670910 0.627773
vt 0.709035 0.637698
vt 0.709035 0.637698
vt 0.718626 0.555798
vt 0.693465 0.559520
vt 0.670910 0.627773
vt 0.693465 0.559520
vt 0.718626 0.555798
vt 0.718626 0.555798
vt 0.709035 0.637698
vt 0.670910 0.627773
vt 0.987157 0.723579
vt 0.749975 0.723579
vt 0.749975 0.680875
vt 0.749975 0.680875
vt 0.987157 0.680875
vt 0.987157 0.723579
vn 0.0006 -0.1590 -0.9873
vn 0.0917 -0.9942 -0.0570
vn -0.0964 -0.9937 -0.0572
vn -0.1207 -0.9924 -0.0246
vn 0.1160 -0.9929 -0.0244
vn 0.0008 -0.0854 -0.9964
vn 0.0018 0.3490 -0.9371
vn 0.0017 0.3490 -0.9371
vn 0.0015 0.8439 0.5366
vn -0.0008 0.0854 0.9964
vn 0.4134 0.8062 -0.4232
vn -0.4344 0.7144 -0.5486
vn -0.5147 0.7641 -0.3888
vn 0.2657 0.8195 -0.5077
vn -0.0505 0.8021 -0.5951
vn -0.9952 -0.0974 0.0076
vn -0.0966 -0.9695 0.2252
vn -0.1209 -0.9737 0.1929
vn -0.1207 -0.9924 -0.0247
vn -1.0000 0.0024 -0.0010
vn -0.8639 0.5017 -0.0437
vn -0.8639 0.5017 -0.0436
vn 0.6219 0.7803 -0.0664
vn 1.0000 -0.0024 0.0010
vn -0.4568 0.7819 0.4242
vn -0.4607 0.8510 0.2521
vn -0.1131 0.9933 0.0239
vn -0.0010 0.0112 0.9999
vn 0.0915 -0.9700 0.2254
vn 0.1158 -0.9743 0.1931
vn 0.0003 0.5033 0.8641
vn 0.0005 0.5033 0.8641
vn 0.0004 0.5033 0.8641
vn 0.0024 0.7403 -0.6723
vn 0.0008 -0.0854 -0.9963
vn 0.4228 0.8613 0.2817
vn 0.2368 0.9079 0.3459
vn 0.9947 -0.1022 0.0095
vn 0.8664 0.4976 -0.0419
vn 0.8664 0.4976 -0.0417
vn 0.8664 0.4976 -0.0420
vn -0.6180 0.7833 -0.0676
vn 0.0113 -0.6265 0.7794
vn -0.0132 0.7605 0.6492
vn -0.9865 -0.0873 -0.1387
vn -0.9936 0.0739 -0.0856
vn 0.9865 0.0486 -0.1565
vn 0.9932 -0.0938 -0.0684
vn 0.9779 -0.1691 -0.1226
vn -0.0206 0.9971 -0.0727
vn -0.9768 -0.2140 0.0107
vn -0.9879 0.0583 -0.1436
vn 0.0671 -0.9907 0.1183
vn 0.9936 0.1116 -0.0197
vn 0.9641 -0.0849 0.2515
vn 0.9739 -0.0827 0.2115
vn 0.9730 -0.0829 0.2154
vn 0.9633 -0.0850 0.2547
vn -0.9734 -0.0828 0.2139
vn -0.9648 -0.0763 0.2515
vn -0.9654 -0.0766 0.2493
vn -0.9739 -0.0832 0.2111
vn -0.0009 0.0228 0.9997
vn 0.1706 -0.6109 0.7731
vn 0.9326 0.2938 -0.2094
vn 0.9670 0.2536 -0.0258
vn 0.4140 0.5817 0.7002
vn -0.6013 -0.7988 -0.0185
vn -0.9675 -0.1590 -0.1967
vn 0.1903 -0.7396 -0.6456
vn -0.9661 -0.1688 0.1954
vn 0.9081 0.3824 0.1709
vn -0.6602 -0.7437 -0.1046
vn 0.4992 0.4598 -0.7344
vn 0.9827 0.1797 -0.0451
vn -0.1740 -0.7327 -0.6580
vn -0.9311 0.3297 0.1560
vn -0.9657 0.2590 -0.0181
vn -0.4114 0.4561 -0.7891
vn 0.5973 -0.7870 0.1544
vn 0.9668 -0.1280 0.2213
vn -0.1937 -0.6181 0.7619
vn 0.9652 -0.2043 -0.1634
vn -0.9062 0.3522 -0.2338
vn 0.6566 -0.7183 0.2299
vn -0.4967 0.5804 0.6453
vn -0.9818 0.1896 0.0135
vn -0.0185 -0.8228 0.5680
vn 0.0002 0.9248 -0.3805
vn 0.0001 0.9245 -0.3811
vn -0.0001 0.6841 -0.7294
vn -0.0001 0.6837 -0.7298
vn 0.0410 -0.7996 0.5992
vn -0.0120 -0.8162 0.5776
vn -0.0102 -0.8138 0.5810
vn 0.0290 -0.7868 0.6166
vn -0.0006 -0.0188 -0.9998
vn -0.0006 -0.0157 -0.9999
vn -0.0006 -0.3480 -0.9375
vn -0.0006 -0.3483 -0.9374
vn -0.0006 0.0524 -0.9986
vn -0.0005 0.0510 -0.9987
vn -0.0004 0.1798 -0.9837
vn -0.0004 0.1826 -0.9832
vn 0.0437 -0.8440 0.5345
vn 0.0332 -0.8511 0.5239
vn -0.9991 -0.0343 0.0242
vn -0.9991 -0.0343 0.0241
vn -0.0151 -0.8299 0.5577
vn -0.0145 -0.8277 0.5610
vn 0.0005 0.7532 0.6578
vn 0.0005 0.7531 0.6580
vn 0.0005 0.7531 0.6579
vn 0.0003 0.9499 0.3126
vn 0.0004 0.9503 0.3112
vn 0.0002 0.9974 0.0720
vn 0.0002 0.9974 0.0715
vn 0.0004 0.9841 0.1779
vn 0.0004 0.9835 0.1807
vn 0.9984 -0.0473 0.0320
vn -0.7345 -0.5582 0.3858
vn 0.0111 -0.9437 -0.3307
vn -0.0057 -0.9655 -0.2605
vn 0.8043 -0.4893 0.3372
vn -0.0102 -0.0085 0.9999
vn -0.0044 -0.0375 0.9993
vn 0.9836 -0.0045 0.1803
vn 0.9747 -0.0138 0.2229
vn 0.9780 -0.0059 0.2087
vn 0.9629 0.0395 0.2670
vn 0.9668 0.0338 0.2531
vn -0.0024 -0.6797 0.7335
vn -0.9691 0.0511 0.2413
vn -0.9763 0.0151 0.2159
vn -0.9792 0.0039 0.2030
vn -0.9907 -0.0673 0.1182
vn -0.9666 0.0601 0.2490
vn 0.0026 0.9759 -0.2183
vn 0.0019 0.9402 0.3407
vn -0.0000 -0.5312 -0.8472
vn 0.0004 -0.5309 -0.8474
vn -0.0004 -0.5316 -0.8470
vn 0.0003 0.4905 0.8714
vn 0.9908 -0.1067 0.0831
vn 0.9917 -0.1099 0.0662
vn -0.9917 -0.1100 0.0673
vn -0.9925 -0.0957 0.0762
vn 0.0025 0.7857 -0.6185
usemtl Material.000001
s 1
f 1/1/1 2/2/1 3/3/1
f 3/3/1 4/4/1 1/1/1
f 5/5/2 6/6/3 7/7/4
f 7/7/4 8/8/5 5/5/2
f 9/9/6 10/10/6 11/11/7
f 11/11/7 12/12/8 9/9/6
f 13/13/8 14/14/7 15/15/9
f 15/15/9 16/16/9 13/13/8
f 16/16/9 15/15/9 17/17/10
f 17/17/10 18/18/10 16/16/9
f 19/19/11 20/20/12 21/21/13
f 21/21/13 22/22/14 19/19/11
f 23/23/15 24/24/15 25/25/15
f 26/26/16 27/27/16 28/28/16
f 28/28/16 29/29/16 26/26/16
f 30/30/3 31/31/17 32/32/18
f 32/32/18 33/33/19 30/30/3
f 34/34/20 35/35/20 36/36/21
f 36/36/21 37/37/22 34/34/20
f 38/38/21 39/39/22 40/40/23
f 40/40/23 41/41/23 38/38/21
f 41/41/23 40/40/23 42/42/24
f 42/42/24 43/43/24 41/41/23
f 20/20/12 44/44/25 45/45/26
f 45/45/26 21/21/13 20/20/12
f 21/21/13 45/45/26 46/46/27
f 47/47/28 48/48/28 49/49/28
f 49/49/28 50/50/28 47/47/28
f 51/51/17 52/52/29 53/53/30
f 53/53/30 54/54/18 51/51/17
f 55/55/10 56/56/10 57/57/31
f 57/57/31 58/58/32 55/55/10
f 59/59/33 60/60/31 61/61/34
f 61/61/34 62/62/34 59/59/33
f 62/62/34 61/61/34 63/63/6
f 63/63/6 64/64/35 62/62/34
f 44/44/25 65/65/36 66/66/37
f 66/66/37 45/45/26 44/44/25
f 45/45/26 66/66/37 46/46/27
f 67/67/38 68/68/38 69/69/38
f 69/69/38 70/70/38 67/67/38
f 71/71/29 72/72/2 73/73/5
f 73/73/5 74/74/30 71/71/29
f 75/75/24 76/76/24 77/77/39
f 77/77/39 78/78/40 75/75/24
f 79/79/39 80/80/41 81/81/42
f 81/81/42 82/82/42 79/79/39
f 82/82/42 81/81/42 83/83/20
f 83/83/20 84/84/20 82/82/42
f 65/65/36 19/19/11 22/22/14
f 22/22/14 66/66/37 65/65/36
f 66/66/37 22/22/14 46/46/27
f 85/85/43 86/86/44 87/87/45
f 87/87/45 88/88/46 85/85/43
f 85/85/43 89/89/47 90/90/48
f 90/90/48 86/86/44 85/85/43
f 88/88/46 87/87/45 90/90/48
f 90/90/48 89/89/47 88/88/46
f 86/86/44 90/90/48 91/91/49
f 91/91/49 92/92/50 86/86/44
f 87/87/45 86/86/44 92/92/50
f 92/92/50 93/93/51 87/87/45
f 90/90/48 87/87/45 93/93/51
f 93/93/51 91/91/49 90/90/48
f 85/85/43 88/88/46 94/94/52
f 94/94/52 95/95/53 85/85/43
f 89/89/47 85/85/43 95/95/53
f 95/95/53 96/96/54 89/89/47
f 88/88/46 89/89/47 96/96/54
f 96/96/54 94/94/52 88/88/46
f 97/97/55 98/98/56 99/99/57
f 99/99/57 100/100/58 97/97/55
f 101/101/59 102/102/60 103/103/61
f 103/103/61 104/104/62 101/101/59
f 105/105/63 106/106/63 107/107/63
f 107/107/63 108/108/63 105/105/63
f 109/109/64 110/110/65 111/111/66
f 111/111/66 112/112/67 109/109/64
f 109/109/64 112/112/67 113/113/68
f 113/113/68 114/114/69 109/109/64
f 110/110/65 114/114/69 113/113/68
f 113/113/68 111/111/66 110/110/65
f 115/115/70 109/109/64 114/114/69
f 114/114/69 116/116/71 115/115/70
f 109/109/64 115/115/70 117/117/72
f 117/117/72 110/110/65 109/109/64
f 114/114/69 110/110/65 117/117/72
f 117/117/72 116/116/71 114/114/69
f 115/115/70 116/116/71 118/118/73
f 118/118/73 119/119/74 115/115/70
f 115/115/70 119/119/74 120/120/75
f 120/120/75 117/117/72 115/115/70
f 116/116/71 117/117/72 120/120/75
f 120/120/75 118/118/73 116/116/71
f 119/119/74 112/112/67 111/111/66
f 111/111/66 120/120/75 119/119/74
f 111/111/66 113/113/68 118/118/73
f 118/118/73 120/120/75 111/111/66
f 121/121/76 122/122/77 123/123/78
f 123/123/78 124/124/79 121/121/76
f 121/121/76 124/124/79 125/125/80
f 125/125/80 126/126/81 121/121/76
f 122/122/77 126/126/81 125/125/80
f 125/125/80 123/123/78 122/122/77
f 127/127/82 121/121/76 126/126/81
f 126/126/81 128/128/83 127/127/82
f 121/121/76 127/127/82 129/129/84
f 129/129/84 122/122/77 121/121/76
f 126/126/81 122/122/77 129/129/84
f 129/129/84 128/128/83 126/126/81
f 127/127/82 128/128/83 130/130/85
f 130/130/85 131/131/86 127/127/82
f 127/127/82 131/131/86 132/132/87
f 132/132/87 129/129/84 127/127/82
f 128/128/83 129/129/84 132/132/87
f 132/132/87 130/130/85 128/128/83
f 131/131/86 124/124/79 123/123/78
f 123/123/78 132/132/87 131/131/86
f 123/123/78 125/125/80 130/130/85
f 130/130/85 132/132/87 123/123/78
usemtl Material.000085
f 133/133/88 134/134/88 135/135/88
f 135/135/88 136/136/88 133/133/88
f 137/137/89 138/138/90 139/139/91
f 139/139/91 140/140/92 137/137/89
f 141/141/93 142/142/94 143/143/95
f 143/143/95 144/144/96 141/141/93
f 145/145/97 146/146/98 147/147/99
f 147/147/99 148/148/100 145/145/97
f 149/149/101 150/150/102 146/146/98
f 146/146/98 145/145/97 149/149/101
f 151/151/103 152/152/104 150/150/102
f 150/150/102 149/149/101 151/151/103
f 140/140/92 139/139/91 152/152/104
f 152/152/104 151/151/103 140/140/92
f 153/153/105 141/141/93 144/144/96
f 144/144/96 154/154/106 153/153/105
f 155/155/107 156/156/107 157/157/107
f 157/157/107 158/158/107 155/155/107
f 159/159/107 160/160/107 156/156/107
f 156/156/107 155/155/107 159/159/107
f 161/161/108 162/162/107 160/160/107
f 160/160/107 159/159/107 161/161/108
f 163/163/108 164/164/108 162/162/107
f 162/162/107 161/161/108 163/163/108
f 165/165/109 153/153/105 154/154/106
f 154/154/106 166/166/110 165/165/109
f 167/167/111 168/168/112 169/169/113
f 169/169/113 170/170/111 167/167/111
f 171/171/114 172/172/115 173/173/116
f 173/173/116 174/174/117 171/171/114
f 175/175/118 176/176/119 172/172/115
f 172/172/115 171/171/114 175/175/118
f 138/138/90 137/137/89 176/176/119
f 176/176/119 175/175/118 138/138/90
f 142/142/94 165/165/109 166/166/110
f 166/166/110 143/143/95 142/142/94
f 177/177/120 178/178/120 179/179/120
f 179/179/120 180/180/120 177/177/120
f 181/181/120 182/182/120 178/178/120
f 178/178/120 177/177/120 181/181/120
f 183/183/120 184/184/120 182/182/120
f 182/182/120 181/181/120 183/183/120
f 185/185/120 186/186/120 184/184/120
f 184/184/120 183/183/120 185/185/120
f 187/187/121 188/188/121 189/189/121
f 190/190/121 191/191/121 192/192/121
f 193/193/122 194/194/122 195/195/122
f 196/196/123 197/197/123 198/198/123
f 199/199/124 200/200/124 201/201/124
f 202/202/124 203/203/124 204/204/124
f 205/205/125 206/206/125 207/207/125
f 208/208/126 209/209/126 210/210/126
f 211/211/127 212/212/128 213/213/129
f 213/213/129 214/214/130 215/215/131
f 211/211/127 213/213/129 215/215/131
f 216/216/132 217/217/132 218/218/132
f 218/218/132 219/219/132 216/216/132
f 220/220/133 221/221/134 222/222/135
f 220/220/133 222/222/135 223/223/136
f 220/220/133 223/223/136 224/224/137
f 225/225/138 226/226/138 227/227/139
f 227/227/139 228/228/139 225/225/138
f 229/229/140 230/230/141 231/231/140
f 231/231/140 232/232/142 229/229/140
f 227/227/139 233/233/143 234/234/143
f 234/234/143 228/228/139 227/227/139
f 235/235/144 236/236/144 237/237/144
f 238/238/145 239/239/145 240/240/145
f 241/241/146 242/242/146 243/243/146
f 244/244/147 245/245/147 246/246/147
f 247/247/148 248/248/148 249/249/148
f 250/250/148 251/251/148 252/252/148
